<svg xmlns="http://www.w3.org/2000/svg" version="1.1" xmlns:xlink="http://www.w3.org/1999/xlink" xmlns:svgjs="http://svgjs.dev/svgjs" width="1440" height="560" preserveAspectRatio="none" viewBox="0 0 1440 560"><g mask="url(&quot;#SvgjsMask1018&quot;)" fill="none"><rect width="1440" height="560" x="0" y="0" fill="url(&quot;#SvgjsLinearGradient1019&quot;)"></rect><path d="M1440 0L826.06 0L1440 254.37z" fill="rgba(255, 255, 255, .1)"></path><path d="M826.06 0L1440 254.37L1440 277.39L623.6099999999999 0z" fill="rgba(255, 255, 255, .075)"></path><path d="M623.6099999999999 0L1440 277.39L1440 416.65999999999997L490.1099999999999 0z" fill="rgba(255, 255, 255, .05)"></path><path d="M490.1099999999999 0L1440 416.65999999999997L1440 443.09999999999997L447.0399999999999 0z" fill="rgba(255, 255, 255, .025)"></path><path d="M0 560L711.15 560L0 504.59000000000003z" fill="rgba(0, 0, 0, .1)"></path><path d="M0 504.59000000000003L711.15 560L966.4 560L0 484.41z" fill="rgba(0, 0, 0, .075)"></path><path d="M0 484.40999999999997L966.4 560L1250.4 560L0 296.56999999999994z" fill="rgba(0, 0, 0, .05)"></path><path d="M0 296.57L1250.4 560L1292.5 560L0 137.5z" fill="rgba(0, 0, 0, .025)"></path></g><defs><mask id="SvgjsMask1018"><rect width="1440" height="560" fill="#ffffff"></rect></mask><linearGradient x1="100%" y1="50%" x2="0%" y2="50%" gradientUnits="userSpaceOnUse" id="SvgjsLinearGradient1019"><stop stop-color="#0e2a47" offset="0"></stop><stop stop-color="rgba(205, 211, 218, 1)" offset="1"></stop></linearGradient></defs></svg>